<svg width="514" height="492" viewBox="0 0 514 492" fill="none" xmlns="http://www.w3.org/2000/svg">
<path d="M330.759 493.361C330.795 493.321 330.83 493.281 330.865 493.241C330.9 493.201 330.935 493.162 330.97 493.122C331.005 493.082 331.041 493.042 331.076 493.002C331.111 492.962 331.146 492.923 331.181 492.882C331.217 492.842 331.251 492.802 331.286 492.762C331.321 492.722 331.357 492.683 331.392 492.643C331.426 492.603 331.461 492.563 331.496 492.524C331.531 492.484 331.567 492.444 331.602 492.404C331.637 492.364 331.673 492.324 331.708 492.284C331.743 492.243 331.778 492.204 331.812 492.164C331.848 492.124 331.883 492.085 331.918 492.045C331.953 492.005 331.988 491.965 332.023 491.925C332.058 491.885 332.093 491.846 332.128 491.806C332.163 491.765 332.199 491.726 332.233 491.685C332.269 491.645 332.304 491.606 332.339 491.566C332.374 491.526 332.409 491.486 332.444 491.446C332.479 491.406 332.514 491.367 332.549 491.327C332.584 491.287 332.62 491.247 332.655 491.207C332.69 491.167 332.725 491.128 332.76 491.087C332.795 491.048 332.83 491.008 332.865 490.968C332.9 490.928 332.936 490.888 332.97 490.848C333.005 490.808 333.041 490.769 333.075 490.728C333.111 490.688 333.146 490.649 333.181 490.609C333.216 490.569 333.252 490.529 333.286 490.489C333.322 490.448 333.357 490.41 333.392 490.369C333.427 490.329 333.462 490.29 333.497 490.25C333.532 490.21 333.566 490.171 333.601 490.131C333.637 490.091 333.672 490.05 333.707 490.01C333.743 489.971 333.778 489.931 333.813 489.891C333.848 489.85 333.883 489.811 333.918 489.771C333.953 489.731 333.989 489.691 334.023 489.651C334.058 489.611 334.094 489.573 334.128 489.532C334.164 489.492 334.199 489.452 334.234 489.412C334.269 489.372 334.304 489.333 334.339 489.293C334.374 489.252 334.41 489.213 334.444 489.172C334.48 489.132 334.515 489.093 334.55 489.053C334.585 489.013 334.62 488.974 334.655 488.934C334.69 488.894 334.726 488.854 334.76 488.814C334.796 488.774 334.831 488.734 334.865 488.694C334.9 488.654 334.935 488.615 334.97 488.575C335.006 488.535 335.042 488.495 335.076 488.455C335.111 488.415 335.147 488.376 335.181 488.335C335.217 488.295 335.252 488.256 335.287 488.215C335.322 488.176 335.357 488.136 335.392 488.096C335.427 488.056 335.463 488.017 335.497 487.976C335.533 487.936 335.567 487.896 335.602 487.856C335.637 487.817 335.672 487.777 335.707 487.737C335.742 487.697 335.778 487.658 335.813 487.617C335.849 487.578 335.884 487.538 335.918 487.498C335.954 487.457 335.989 487.418 336.024 487.378C336.059 487.337 336.094 487.298 336.129 487.258C336.163 487.219 336.199 487.18 336.234 487.139C336.269 487.099 336.304 487.059 336.339 487.019C336.374 486.98 336.409 486.94 336.444 486.9C336.479 486.859 336.516 486.82 336.55 486.78C336.586 486.739 336.62 486.7 336.655 486.66C336.69 486.62 336.725 486.581 336.76 486.541C336.796 486.5 336.831 486.461 336.866 486.42C336.901 486.381 336.937 486.341 336.971 486.301C337.006 486.261 337.041 486.222 337.076 486.181C337.112 486.141 337.147 486.102 337.182 486.061C337.216 486.022 337.252 485.983 337.287 485.943C337.322 485.902 337.357 485.863 337.392 485.822C337.428 485.783 337.463 485.743 337.498 485.703C337.533 485.663 337.568 485.623 337.603 485.583C337.638 485.543 337.673 485.504 337.708 485.463C337.743 485.424 337.778 485.384 337.812 485.345C337.848 485.304 337.883 485.265 337.919 485.224C337.954 485.185 337.989 485.144 338.024 485.104C338.059 485.064 338.094 485.025 338.129 484.985C338.165 484.944 338.2 484.906 338.235 484.865C338.269 484.826 338.305 484.786 338.34 484.746C338.375 484.705 338.41 484.666 338.445 484.626C338.48 484.586 338.515 484.547 338.55 484.507C338.585 484.467 338.621 484.427 338.656 484.387C338.691 484.346 338.726 484.307 338.761 484.267C338.795 484.227 338.831 484.188 338.865 484.148C338.901 484.107 338.937 484.068 338.972 484.028C339.007 483.988 339.042 483.948 339.077 483.908C339.111 483.869 339.147 483.829 339.181 483.789C339.217 483.748 339.252 483.709 339.287 483.668C339.322 483.629 339.357 483.59 339.392 483.55C339.427 483.509 339.463 483.47 339.497 483.43C339.533 483.39 339.568 483.35 339.603 483.309C339.638 483.269 339.674 483.23 339.709 483.19C339.744 483.15 339.779 483.111 339.814 483.07C339.848 483.031 339.883 482.991 339.918 482.952C339.953 482.911 339.989 482.871 340.024 482.831C340.059 482.791 340.095 482.752 340.13 482.711C340.165 482.671 340.2 482.632 340.234 482.592C340.27 482.552 340.305 482.512 340.34 482.472C340.375 482.432 340.41 482.393 340.445 482.353C340.48 482.313 340.516 482.273 340.551 482.233C340.585 482.193 340.621 482.154 340.655 482.113C340.691 482.073 340.726 482.033 340.761 481.993C340.796 481.953 340.832 481.914 340.867 481.874C340.901 481.834 340.937 481.795 340.971 481.755C341.007 481.715 341.042 481.675 341.077 481.635C341.112 481.595 341.147 481.555 341.182 481.515C341.217 481.474 341.253 481.435 341.287 481.395C341.322 481.355 341.358 481.316 341.392 481.276C341.428 481.236 341.463 481.196 341.498 481.156C341.533 481.116 341.569 481.076 341.604 481.036C341.639 480.996 341.674 480.957 341.708 480.917C341.744 480.876 341.779 480.837 341.814 480.797C341.849 480.757 341.884 480.717 341.919 480.677C341.954 480.637 341.989 480.598 342.024 480.559C342.059 480.518 342.095 480.478 342.13 480.438C342.165 480.398 342.2 480.359 342.235 480.318C342.27 480.278 342.306 480.239 342.34 480.198C342.376 480.158 342.411 480.119 342.445 480.079C342.48 480.039 342.516 480 342.55 479.96C342.586 479.92 342.621 479.88 342.656 479.84C342.691 479.8 342.726 479.761 342.761 479.72C342.796 479.68 342.832 479.641 342.867 479.6C342.902 479.56 342.937 479.521 342.972 479.481C343.007 479.441 343.042 479.402 343.077 479.361C343.112 479.321 343.148 479.281 343.182 479.241C343.218 479.202 343.253 479.162 343.288 479.122C343.323 479.081 343.358 479.042 343.393 479.002C343.427 478.963 343.463 478.923 343.498 478.883C343.533 478.843 343.569 478.804 343.603 478.763C343.639 478.723 343.674 478.683 343.709 478.643C343.744 478.603 343.78 478.564 343.814 478.524C343.85 478.483 343.885 478.444 343.919 478.403C343.955 478.363 343.99 478.324 344.025 478.284C344.06 478.244 344.094 478.205 344.129 478.165C344.164 478.125 344.2 478.085 344.235 478.045C344.271 478.005 344.305 477.965 344.34 477.925C344.376 477.885 344.411 477.846 344.446 477.805C344.481 477.765 344.517 477.726 344.551 477.686C344.586 477.646 344.622 477.607 344.656 477.566C344.692 477.526 344.727 477.487 344.762 477.446C344.797 477.407 344.832 477.368 344.867 477.328C344.902 477.287 344.938 477.248 344.972 477.207C345.008 477.167 345.042 477.127 345.077 477.087C345.112 477.048 345.147 477.009 345.182 476.968C345.217 476.928 345.254 476.889 345.288 476.848C345.324 476.809 345.358 476.769 345.393 476.729C345.429 476.688 345.464 476.649 345.499 476.609C345.534 476.569 345.569 476.53 345.604 476.49C345.639 476.45 345.674 476.411 345.709 476.37C345.744 476.33 345.779 476.29 345.814 476.25C345.85 476.211 345.885 476.17 345.92 476.13C345.955 476.09 345.991 476.051 346.025 476.011C346.061 475.97 346.095 475.931 346.13 475.891C346.165 475.852 346.2 475.812 346.234 475.772C346.27 475.732 346.305 475.692 346.341 475.651C346.376 475.612 346.411 475.572 346.446 475.532C346.482 475.492 346.516 475.453 346.551 475.413C346.587 475.372 346.622 475.333 346.657 475.292C346.691 475.253 346.727 475.214 346.762 475.174C346.797 475.133 346.832 475.094 346.867 475.053C346.902 475.014 346.937 474.974 346.972 474.934C347.007 474.894 347.043 474.855 347.078 474.814C347.113 474.774 347.148 474.735 347.183 474.694C347.218 474.655 347.253 474.616 347.288 474.576C347.323 474.535 347.359 474.496 347.394 474.455C347.429 474.416 347.464 474.375 347.499 474.335C347.534 474.295 347.569 474.256 347.604 474.216C347.639 474.176 347.674 474.137 347.709 474.097C347.744 474.057 347.78 474.017 347.815 473.977C347.85 473.936 347.885 473.897 347.92 473.857C347.956 473.817 347.99 473.777 348.025 473.737C348.06 473.697 348.096 473.658 348.131 473.618C348.166 473.577 348.201 473.538 348.236 473.497C348.27 473.458 348.306 473.419 348.34 473.379C348.375 473.338 348.411 473.3 348.446 473.259C348.481 473.219 348.517 473.179 348.552 473.139C348.587 473.099 348.622 473.06 348.657 473.02C348.693 472.979 348.727 472.94 348.762 472.9C348.797 472.86 348.832 472.821 348.867 472.781C348.902 472.74 348.938 472.701 348.972 472.661C349.007 472.621 349.043 472.581 349.077 472.541C349.113 472.501 349.149 472.461 349.184 472.421C349.219 472.381 349.254 472.342 349.288 472.301C349.323 472.262 349.359 472.222 349.393 472.182C349.429 472.142 349.464 472.102 349.499 472.062C349.534 472.022 349.57 471.983 349.605 471.942C349.64 471.902 349.675 471.863 349.709 471.823C349.744 471.783 349.78 471.744 349.814 471.703C349.85 471.664 349.885 471.624 349.92 471.584C349.955 471.544 349.991 471.504 350.025 471.464C350.061 471.424 350.096 471.385 350.131 471.344C350.166 471.304 350.201 471.265 350.236 471.225C350.271 471.185 350.307 471.145 350.341 471.105C350.376 471.065 350.412 471.026 350.446 470.986C350.481 470.946 350.517 470.906 350.551 470.866C350.587 470.825 350.622 470.786 350.657 470.746C350.692 470.705 350.728 470.666 350.762 470.626C350.798 470.586 350.833 470.547 350.868 470.507C350.903 470.467 350.938 470.427 350.973 470.387C351.008 470.347 351.044 470.307 351.078 470.267C351.113 470.227 351.149 470.188 351.183 470.148C351.219 470.108 351.254 470.068 351.289 470.028C351.324 469.988 351.359 469.949 351.394 469.909C351.429 469.869 351.464 469.829 351.499 469.789C351.534 469.749 351.57 469.709 351.605 469.669C356.105 464.544 358.39 457.449 357.384 449.603L308.855 71.4133C306.85 55.7891 292.559 43.1239 276.935 43.1239H97.6758C89.8359 43.1239 83.1532 46.3149 78.6904 51.4667C78.6557 51.507 78.6203 51.5466 78.5855 51.5869C78.5501 51.6271 78.514 51.6667 78.4793 51.707C78.4438 51.7473 78.4091 51.7862 78.3744 51.8265C78.339 51.8668 78.3035 51.9057 78.2688 51.946C78.2341 51.9855 78.1986 52.0251 78.1639 52.0654C78.1285 52.1057 78.0931 52.1453 78.0583 52.1856C78.0229 52.2252 77.9882 52.2648 77.9535 52.3051C77.9187 52.3446 77.8833 52.3842 77.8486 52.4245C77.8132 52.4648 77.777 52.5044 77.7423 52.5447C77.7076 52.5843 77.6721 52.6232 77.6374 52.6635C77.602 52.7038 77.5666 52.7433 77.5318 52.7836C77.4964 52.8232 77.4617 52.8628 77.427 52.9031C77.3915 52.9434 77.3561 52.983 77.3214 53.0233C77.2867 53.0629 77.2512 53.1018 77.2165 53.142C77.1811 53.1816 77.1463 53.2212 77.1116 53.2615C77.0762 53.3018 77.0401 53.3414 77.0053 53.3817C76.9699 53.4213 76.9352 53.4615 76.9005 53.5018C76.865 53.5421 76.8296 53.581 76.7949 53.6213C76.7595 53.6616 76.7247 53.7005 76.69 53.7408C76.6553 53.7804 76.6199 53.82 76.5851 53.8603C76.5504 53.9005 76.5143 53.9394 76.4795 53.9797C76.4441 54.02 76.4087 54.0596 76.374 54.0999C76.3385 54.1402 76.3031 54.1791 76.2684 54.2194C76.233 54.2597 76.1982 54.2992 76.1635 54.3395C76.1288 54.3791 76.0933 54.418 76.0586 54.4583C76.0232 54.4986 75.9878 54.5382 75.953 54.5785C75.9176 54.6181 75.8822 54.6577 75.8475 54.6979C75.8127 54.7375 75.7773 54.7771 75.7426 54.8174C75.7071 54.8577 75.6717 54.8973 75.637 54.9376C75.6023 54.9772 75.5668 55.0161 75.5321 55.0564C75.4967 55.0966 75.4613 55.1362 75.4265 55.1765C75.3911 55.2161 75.3557 55.2564 75.3209 55.2967C75.2855 55.337 75.2508 55.3759 75.2161 55.4162C75.1806 55.4564 75.1452 55.4953 75.1105 55.5356C75.0758 55.5752 75.041 55.6148 75.0063 55.6544C74.9709 55.6947 74.9354 55.735 74.9 55.7753C74.8646 55.8148 74.8292 55.8544 74.7944 55.8947C74.759 55.935 74.7243 55.9739 74.6896 56.0142C74.6541 56.0545 74.6187 56.0934 74.584 56.1337C74.5493 56.1733 74.5138 56.2128 74.4791 56.2531C74.4437 56.2934 74.4082 56.333 74.3735 56.3733C74.3388 56.4129 74.3034 56.4525 74.2686 56.4928C74.2332 56.5331 74.1978 56.5726 74.1631 56.6129C74.1276 56.6532 74.0929 56.6921 74.0582 56.7324C74.0235 56.772 73.988 56.8109 73.9533 56.8512C73.9179 56.8915 73.8817 56.9311 73.847 56.9713C73.8116 57.0109 73.7769 57.0512 73.7421 57.0915C73.7074 57.1311 73.672 57.17 73.6373 57.2103C73.6018 57.2506 73.5664 57.2902 73.5317 57.3304C73.497 57.37 73.4615 57.4096 73.4268 57.4499C73.3914 57.4902 73.3559 57.5298 73.3212 57.5701C73.2858 57.6097 73.2504 57.6493 73.2156 57.6896C73.1802 57.7298 73.1448 57.7687 73.1101 57.809C73.0746 57.8493 73.0399 57.8882 73.0052 57.9285C72.9704 57.9681 72.9357 58.0077 72.901 58.0473C72.8656 58.0876 72.8301 58.1278 72.7947 58.1681C72.7593 58.2077 72.7239 58.2473 72.6891 58.2876C72.6537 58.3279 72.619 58.3675 72.5842 58.4078C72.5488 58.4481 72.5134 58.487 72.4787 58.5272C72.4439 58.5668 72.4085 58.6057 72.3738 58.646C72.3384 58.6863 72.3029 58.7259 72.2682 58.7662C72.2335 58.8058 72.198 58.8454 72.1633 58.8857C72.1279 58.9259 72.0925 58.9655 72.0577 59.0058C72.0223 59.0461 71.9869 59.085 71.9522 59.1253C71.9174 59.1649 71.882 59.2045 71.8473 59.2448C71.8118 59.285 71.7764 59.3246 71.7417 59.3649C71.7063 59.4045 71.6715 59.4441 71.6368 59.4844C71.6021 59.524 71.5667 59.5629 71.5319 59.6032C71.4965 59.6435 71.4604 59.683 71.4257 59.7233C71.3909 59.7629 71.3555 59.8025 71.3208 59.8428C71.2853 59.8831 71.2499 59.9227 71.2152 59.963C71.1798 60.0026 71.145 60.0421 71.1103 60.0824C71.0749 60.1227 71.0395 60.1623 71.0047 60.2026C70.9693 60.2429 70.9346 60.2818 70.8999 60.3221C70.8651 60.3617 70.8297 60.4013 70.795 60.4408C70.7595 60.4811 70.7241 60.5207 70.6887 60.561C70.6533 60.6006 70.6185 60.6409 70.5838 60.6812C70.5484 60.7215 70.513 60.7604 70.4782 60.8006C70.4428 60.8409 70.4081 60.8798 70.3734 60.9201C70.3386 60.9597 70.3032 60.9993 70.2685 61.0396C70.233 61.0799 70.1976 61.1195 70.1629 61.1597C70.1282 61.1993 70.0927 61.2382 70.058 61.2785C70.0226 61.3188 69.9865 61.3584 69.9517 61.3987C69.9163 61.439 69.8816 61.4779 69.8469 61.5182C69.8121 61.5577 69.7767 61.5973 69.742 61.6376C69.7065 61.6779 69.6711 61.7175 69.6364 61.7578C69.601 61.7974 69.5655 61.837 69.5308 61.8773C69.4961 61.9169 69.4607 61.9564 69.4259 61.9967C69.3905 62.037 69.3551 62.0766 69.3204 62.1169C69.2856 62.1565 69.2502 62.1954 69.2155 62.2357C69.18 62.276 69.1446 62.3156 69.1099 62.3559C69.0745 62.3954 69.039 62.4357 69.0043 62.476C68.9689 62.5163 68.9342 62.5552 68.8994 62.5955C68.864 62.6358 68.8286 62.6747 68.7938 62.715C68.7591 62.7545 68.7244 62.7941 68.6896 62.8337C68.6542 62.874 68.6188 62.9143 68.5834 62.9546C68.548 62.9942 68.5125 63.0338 68.4778 63.0741C68.4424 63.1143 68.4076 63.1532 68.3729 63.1935C68.3375 63.2338 68.3021 63.2727 68.2673 63.313C68.2326 63.3526 68.1972 63.3922 68.1624 63.4325C68.127 63.4728 68.0916 63.5123 68.0569 63.5526C68.0221 63.5922 67.9867 63.6311 67.952 63.6714C67.9166 63.7117 67.8811 63.7513 67.8464 63.7916C67.811 63.8319 67.7763 63.8714 67.7415 63.9117C67.7068 63.9513 67.6714 63.9902 67.6366 64.0305C67.6012 64.0708 67.5651 64.1104 67.5304 64.1507C67.4949 64.1903 67.4602 64.2305 67.4255 64.2708C67.3901 64.3111 67.3546 64.35 67.3199 64.3903C67.2852 64.4299 67.2498 64.4688 67.215 64.5091C67.1796 64.5487 67.1449 64.589 67.1101 64.6292C67.0747 64.6695 67.0393 64.7091 67.0046 64.7494C66.9691 64.789 66.9337 64.8286 66.899 64.8689C66.8636 64.9092 66.8281 64.9481 66.7934 64.9883C66.758 65.0286 66.7233 65.0675 66.6885 65.1078C66.6538 65.1474 66.6191 65.187 66.5843 65.2266C66.5489 65.2669 66.5135 65.3072 66.4781 65.3475C66.4426 65.387 66.4072 65.4266 66.3725 65.4669C66.3371 65.5072 66.3023 65.5461 66.2676 65.5864C66.2322 65.6267 66.1968 65.6663 66.162 65.7066C66.1273 65.7462 66.0919 65.7851 66.0571 65.8253C66.0217 65.8656 65.9863 65.9052 65.9516 65.9455C65.9168 65.9851 65.8814 66.0247 65.8467 66.065C65.8113 66.1053 65.7758 66.1449 65.7411 66.1852C65.7057 66.2254 65.6703 66.2643 65.6355 66.3046C65.6008 66.3442 65.5654 66.3838 65.5306 66.4241C65.4952 66.4644 65.4598 66.504 65.4251 66.5443C65.3896 66.5838 65.3549 66.6234 65.3202 66.6637C65.2848 66.704 65.2493 66.7429 65.2146 66.7832C65.1799 66.8228 65.1444 66.8624 65.1097 66.9027C65.0743 66.9423 65.0389 66.9819 65.0041 67.0221C64.9687 67.0624 64.9333 67.102 64.8986 67.1423C64.8631 67.1819 64.8284 67.2215 64.7937 67.2618C64.7582 67.3021 64.7228 67.341 64.6881 67.3812C64.6527 67.4215 64.6179 67.4611 64.5832 67.5014C64.5485 67.541 64.5131 67.5806 64.4783 67.6202C64.4429 67.6605 64.4075 67.7001 64.372 67.7403C64.3366 67.7799 64.3019 67.8202 64.2672 67.8605C64.2317 67.9008 64.1963 67.9397 64.1616 67.98C64.1262 68.0203 64.0914 68.0592 64.0567 68.0994C64.022 68.139 63.9866 68.1786 63.9518 68.2189C63.9164 68.2592 63.881 68.2988 63.8462 68.3391C63.8115 68.3787 63.7761 68.4176 63.7414 68.4579C63.7059 68.4981 63.6698 68.5377 63.6351 68.578C63.5997 68.6183 63.5649 68.6572 63.5302 68.6975C63.4955 68.7371 63.4601 68.7767 63.4253 68.817C63.3899 68.8572 63.3545 68.8968 63.3197 68.9371C63.2843 68.9767 63.2489 69.0163 63.2142 69.0566C63.1787 69.0969 63.144 69.1358 63.1093 69.1761C63.0746 69.2157 63.0391 69.2552 63.0044 69.2955C62.969 69.3351 62.9336 69.3747 62.8988 69.415C62.8634 69.4553 62.828 69.4949 62.7932 69.5352C62.7578 69.5748 62.7224 69.6144 62.6877 69.6546C62.6522 69.6949 62.6175 69.7345 62.5828 69.7748C62.5474 69.8151 62.5119 69.854 62.4772 69.8943C62.4425 69.9339 62.4071 69.9735 62.3723 70.0138C62.3376 70.054 62.3022 70.0929 62.2674 70.1332C62.232 70.1735 62.1959 70.2131 62.1612 70.2534C62.1257 70.2937 62.091 70.3326 62.0563 70.3729C62.0209 70.4131 61.9854 70.452 61.9507 70.4923C61.916 70.5319 61.8806 70.5715 61.8458 70.6118C61.8104 70.6521 61.775 70.6917 61.7402 70.732C61.7055 70.7716 61.6701 70.8105 61.6353 70.8507C61.5999 70.891 61.5645 70.9306 61.5298 70.9709C61.4944 71.0112 61.4596 71.0508 61.4249 71.0911C61.3902 71.1307 61.3547 71.1696 61.32 71.2098C61.2846 71.2501 61.2485 71.2897 61.2137 71.33C61.1783 71.3696 61.1436 71.4092 61.1088 71.4495C61.0734 71.4898 61.038 71.5294 61.0033 71.5696C60.9685 71.6092 60.9331 71.6481 60.8984 71.6884C60.863 71.728 60.8282 71.7683 60.7935 71.8086C60.7581 71.8489 60.7226 71.8885 60.6879 71.9287C60.6525 71.9683 60.6171 72.0079 60.5823 72.0482C60.5469 72.0885 60.5122 72.1274 60.4775 72.1677C60.442 72.208 60.4066 72.2469 60.3719 72.2872C60.3372 72.3267 60.3017 72.3663 60.267 72.4066C60.2323 72.4469 60.1961 72.4858 60.1614 72.5261C60.126 72.5664 60.0906 72.606 60.0558 72.6463C60.0204 72.6865 59.9857 72.7254 59.951 72.7657C59.9155 72.806 59.8801 72.8456 59.8454 72.8859C59.8107 72.9255 59.7752 72.9644 59.7405 73.0047C59.7051 73.045 59.6696 73.0845 59.6349 73.1248C59.5995 73.1644 59.5641 73.204 59.5293 73.2443C59.4946 73.2839 59.4592 73.3235 59.4245 73.3638C59.389 73.4041 59.3536 73.4437 59.3189 73.4839C59.2842 73.5235 59.2487 73.5631 59.214 73.6034C59.1786 73.6437 59.1431 73.6826 59.1084 73.7229C59.073 73.7625 59.0383 73.8028 59.0035 73.8431C58.9681 73.8833 58.9327 73.9222 58.898 73.9625C58.8625 74.0028 58.8278 74.0417 58.7931 74.082C58.7583 74.1216 58.7229 74.1612 58.6882 74.2008C58.6528 74.2411 58.6166 74.2813 58.5819 74.3216C58.5465 74.3612 58.5118 74.4008 58.477 74.4411C58.4416 74.4814 58.4062 74.5203 58.3715 74.5606C58.336 74.6008 58.3013 74.6404 58.2666 74.6807C58.2318 74.7203 58.1964 74.7592 58.1617 74.7995C58.1263 74.8398 58.0908 74.8794 58.0561 74.9197C58.0214 74.9593 57.9859 74.9989 57.9512 75.0391C57.9158 75.0794 57.8797 75.119 57.845 75.1593C57.8095 75.1996 57.7748 75.2385 57.7401 75.2788C53.2398 80.4035 50.9539 87.4988 51.9603 95.3442L100.49 473.534C102.494 489.159 116.785 501.824 132.41 501.824H311.669C319.508 501.824 326.192 498.632 330.655 493.48C330.689 493.441 330.725 493.401 330.759 493.361Z" fill="url(#paint0_linear_158_254)"/>
<path d="M325.179 208.546C321.542 208.546 318.216 205.598 317.749 201.961L313.149 166.12C312.683 162.483 315.253 159.534 318.89 159.534C322.526 159.534 325.854 162.483 326.32 166.12L330.919 201.961C331.386 205.598 328.816 208.546 325.179 208.546Z" fill="url(#paint1_linear_158_254)"/>
<path d="M332.724 477.893H153.465C137.841 477.893 123.55 465.228 121.546 449.603L73.0163 71.4133C71.0117 55.7891 82.0516 43.1239 97.6758 43.1239H276.935C292.559 43.1239 306.85 55.7891 308.855 71.4133L357.384 449.603C359.389 465.228 348.349 477.893 332.724 477.893Z" fill="url(#paint2_linear_158_254)"/>
<path d="M324.257 462.946H158.096C147.47 462.946 137.75 454.332 136.387 443.706L89.3708 77.3112C88.0073 66.6853 95.5166 58.0709 106.142 58.0709H272.303C282.929 58.0709 292.649 66.6853 294.013 77.3112L341.028 443.706C342.391 454.332 334.883 462.946 324.257 462.946Z" fill="url(#paint3_linear_158_254)"/>
<path d="M137.01 58.0709L141.448 65.9782C143.776 70.1256 148.207 72.8095 152.726 72.8095H217.078C221.597 72.8095 225.34 70.1256 226.603 65.9782L229.012 58.0709H137.01Z" fill="url(#paint4_linear_158_254)"/>
<path d="M332.724 477.893H153.465C137.841 477.893 123.55 465.228 121.546 449.603L73.0163 71.4133C71.0117 55.7891 82.0516 43.1239 97.6758 43.1239H276.935C292.559 43.1239 306.85 55.7891 308.855 71.4133L357.384 449.603C359.389 465.228 348.349 477.893 332.724 477.893Z" fill="url(#paint5_linear_158_254)"/>
<path d="M324.257 462.946H158.096C147.47 462.946 137.75 454.332 136.387 443.706L89.3708 77.3112C88.0073 66.6853 95.5166 58.0709 106.142 58.0709H272.303C282.929 58.0709 292.649 66.6853 294.013 77.3112L341.028 443.706C342.391 454.332 334.883 462.946 324.257 462.946Z" fill="url(#paint6_linear_158_254)"/>
<path d="M324.257 462.946H158.096C147.47 462.946 137.75 454.332 136.387 443.706L89.3708 77.3112C88.0073 66.6853 95.5166 58.0709 106.142 58.0709H272.303C282.929 58.0709 292.649 66.6853 294.013 77.3112L341.028 443.706C342.391 454.332 334.883 462.946 324.257 462.946ZM156.398 402.384H303.536C311.404 402.384 318.582 408.763 319.568 416.631C320.555 424.499 314.976 430.878 307.107 430.878H159.969C152.101 430.878 144.923 424.499 143.937 416.631C142.95 408.763 148.529 402.384 156.398 402.384Z" fill="url(#paint7_linear_158_254)"/>
<path d="M324.257 462.946H158.096C147.47 462.946 137.75 454.332 136.387 443.706L89.3708 77.3112C88.0073 66.6853 95.5166 58.0709 106.142 58.0709H272.303C282.929 58.0709 292.649 66.6853 294.013 77.3112L341.028 443.706C342.391 454.332 334.883 462.946 324.257 462.946ZM156.398 402.384H303.536C311.404 402.384 318.582 408.763 319.568 416.631C320.555 424.499 314.976 430.878 307.107 430.878H159.969C152.101 430.878 144.923 424.499 143.937 416.631C142.95 408.763 148.529 402.384 156.398 402.384Z" fill="#DAF1F1"/>
<path d="M324.257 462.946H158.096C147.47 462.946 137.75 454.332 136.387 443.706L89.3708 77.3112C88.0073 66.6853 95.5166 58.0709 106.142 58.0709H272.303C282.929 58.0709 292.649 66.6853 294.013 77.3112L341.028 443.706C342.391 454.332 334.883 462.946 324.257 462.946ZM156.398 402.384H303.536C311.404 402.384 318.582 408.763 319.568 416.631C320.555 424.499 314.976 430.878 307.107 430.878H159.969C152.101 430.878 144.923 424.499 143.937 416.631C142.95 408.763 148.529 402.384 156.398 402.384Z" stroke="url(#paint8_linear_158_254)" stroke-width="0.694595" stroke-miterlimit="10"/>
<path d="M324.257 462.946H158.096C147.47 462.946 137.75 454.332 136.387 443.706L89.3708 77.3112C88.0073 66.6853 95.5166 58.0709 106.142 58.0709H272.303C282.929 58.0709 292.649 66.6853 294.013 77.3112L341.028 443.706C342.391 454.332 334.883 462.946 324.257 462.946ZM282.465 402.384H303.536C311.404 402.384 318.582 408.763 319.568 416.631C320.555 424.499 314.976 430.878 307.107 430.878H286.037L282.465 402.384Z" fill="url(#paint9_linear_158_254)"/>
<path d="M324.257 462.946H158.096C147.471 462.946 137.75 454.332 136.387 443.706L89.3711 77.3112C88.0077 66.6853 95.5169 58.0709 106.143 58.0709H272.304C282.93 58.0709 292.65 66.6853 294.013 77.3112L341.028 443.706C342.392 454.332 334.883 462.946 324.257 462.946ZM77.5172 83.9536L302.775 81.9129L293.312 49.0981L71.6465 51.1069L77.5172 83.9536Z" fill="url(#paint10_linear_158_254)"/>
<path d="M137.01 58.0709L141.448 65.9782C143.776 70.1256 148.207 72.8095 152.726 72.8095H217.078C221.597 72.8095 225.34 70.1256 226.603 65.9782L229.012 58.0709H137.01Z" fill="url(#paint11_linear_158_254)"/>
<path d="M272.303 58.0709H263.802C274.428 58.0709 284.147 66.6853 285.511 77.3112L332.526 443.706C333.89 454.332 326.381 462.946 315.755 462.946H324.256C334.883 462.946 342.391 454.332 341.027 443.706L294.012 77.3112C292.649 66.6853 282.93 58.0709 272.303 58.0709Z" fill="url(#paint12_linear_158_254)"/>
<path d="M223.46 72.8094H159.109C154.59 72.8094 150.158 70.1255 147.83 65.9781L135.119 43.3315H239.885L232.985 65.9781C231.722 70.1255 227.979 72.8094 223.46 72.8094Z" fill="url(#paint13_linear_158_254)"/>
<path d="M207.21 63.3776H160.429C158.963 63.3776 157.622 62.1899 157.434 60.7243C157.246 59.2587 158.282 58.0709 159.747 58.0709H206.529C207.994 58.0709 209.334 59.2587 209.523 60.7243C209.711 62.1899 208.675 63.3776 207.21 63.3776Z" fill="url(#paint14_linear_158_254)"/>
<path d="M222.034 60.7242C222.301 62.8003 220.833 64.484 218.757 64.484C216.68 64.484 214.781 62.8003 214.515 60.7242C214.248 58.6481 215.716 56.9644 217.792 56.9644C219.868 56.9644 221.768 58.6481 222.034 60.7242Z" fill="url(#paint15_linear_158_254)"/>
<path d="M272.303 58.0709H263.802C274.428 58.0709 284.147 66.6853 285.511 77.3112L332.526 443.706C333.89 454.332 326.381 462.946 315.755 462.946H324.256C334.883 462.946 342.391 454.332 341.027 443.706L294.012 77.3112C292.649 66.6853 282.93 58.0709 272.303 58.0709Z" fill="url(#paint16_linear_158_254)"/>
<path d="M223.46 72.8094H159.109C154.59 72.8094 150.158 70.1255 147.83 65.9781L135.119 43.3315H239.885L232.985 65.9781C231.722 70.1255 227.979 72.8094 223.46 72.8094Z" fill="url(#paint17_linear_158_254)"/>
<path d="M207.21 63.3776H160.429C158.963 63.3776 157.622 62.1899 157.434 60.7243C157.246 59.2587 158.282 58.0709 159.747 58.0709H206.529C207.994 58.0709 209.334 59.2587 209.523 60.7243C209.711 62.1899 208.675 63.3776 207.21 63.3776Z" fill="url(#paint18_linear_158_254)"/>
<path d="M222.034 60.7242C222.301 62.8003 220.833 64.484 218.757 64.484C216.68 64.484 214.781 62.8003 214.515 60.7242C214.248 58.6481 215.716 56.9644 217.792 56.9644C219.868 56.9644 221.768 58.6481 222.034 60.7242Z" fill="url(#paint19_linear_158_254)"/>
<path d="M87.3534 265.944H82.5676C78.9307 265.944 75.6036 262.996 75.1369 259.359L71.1485 228.276C70.6817 224.639 73.2517 221.69 76.8886 221.69H81.6751C85.312 221.69 88.6384 224.639 89.1052 228.276L93.0942 259.359C93.561 262.996 90.9903 265.944 87.3534 265.944Z" fill="url(#paint20_linear_158_254)"/>
<path d="M82.5676 265.944C78.9307 265.944 75.6036 262.996 75.1369 259.359L71.1485 228.276C70.6817 224.639 73.2517 221.69 76.8886 221.69C80.5255 221.69 83.8526 224.639 84.3194 228.276L88.3077 259.359C88.7745 262.996 86.2045 265.944 82.5676 265.944Z" fill="url(#paint21_linear_158_254)"/>
<path d="M79.3775 203.788H74.591C70.9542 203.788 67.6277 200.84 67.161 197.203L63.1719 166.12C62.7051 162.483 65.2758 159.534 68.9127 159.534H73.6985C77.3354 159.534 80.6618 162.483 81.1286 166.12L85.1176 197.203C85.5844 200.84 83.0144 203.788 79.3775 203.788Z" fill="url(#paint22_linear_158_254)"/>
<path d="M74.5911 203.788C70.9542 203.788 67.6277 200.84 67.161 197.203L63.1719 166.12C62.7051 162.483 65.2758 159.534 68.9127 159.534C72.5496 159.534 75.8761 162.483 76.3428 166.12L80.3312 197.203C80.798 200.84 78.2279 203.788 74.5911 203.788Z" fill="url(#paint23_linear_158_254)"/>
<mask id="mask0_158_254" style="mask-type:luminance" maskUnits="userSpaceOnUse" x="-119" y="-124" width="752" height="751">
<path d="M-118.081 -123.638H632.081V626.524H-118.081V-123.638Z" fill="white"/>
</mask>
<g mask="url(#mask0_158_254)">
<path d="M290.877 217.135H124.716C114.09 217.135 104.37 208.521 103.007 197.895L55.9909 -168.5C54.6274 -179.126 62.1367 -187.74 72.7626 -187.74H238.924C249.549 -187.74 259.27 -179.126 260.633 -168.5L307.648 197.895C309.012 208.521 301.503 217.135 290.877 217.135ZM193.363 -61.749H96.2705L81.1991 -49.2664L77.101 -81.9617C75.7014 -93.1252 83.617 -102.175 94.7806 -102.175H188.296C199.459 -102.175 209.644 -93.1252 211.043 -81.9617C212.443 -70.7982 204.527 -61.749 193.363 -61.749Z" fill="url(#paint24_linear_158_254)"/>
<path d="M290.877 217.135H124.716C114.09 217.135 104.37 208.521 103.007 197.895L55.9909 -168.5C54.6274 -179.126 62.1367 -187.74 72.7626 -187.74H238.924C249.549 -187.74 259.27 -179.126 260.633 -168.5L307.648 197.895C309.012 208.521 301.503 217.135 290.877 217.135ZM186.479 -126.193H89.3863L74.315 -113.711L70.2162 -146.407C68.8166 -157.57 76.7329 -166.62 87.8964 -166.62H181.412C192.575 -166.62 202.759 -157.57 204.158 -146.407C205.558 -135.243 197.642 -126.193 186.479 -126.193Z" fill="url(#paint25_linear_158_254)"/>
<path d="M290.877 217.135H124.716C114.09 217.135 104.37 208.521 103.007 197.895L55.9909 -168.5C54.6274 -179.126 62.1367 -187.74 72.7626 -187.74H238.924C249.549 -187.74 259.27 -179.126 260.633 -168.5L307.648 197.895C309.012 208.521 301.503 217.135 290.877 217.135ZM153.225 1.91754H250.318L268.519 14.4001L264.42 -18.2959C263.02 -29.4594 252.837 -38.5092 241.673 -38.5092H148.158C136.995 -38.5092 129.079 -29.4594 130.479 -18.2959C131.878 -7.13234 142.062 1.91754 153.225 1.91754Z" fill="url(#paint26_linear_158_254)"/>
<path d="M290.877 217.135H124.716C114.09 217.135 104.37 208.521 103.007 197.895L55.9909 -168.5C54.6274 -179.126 62.1367 -187.74 72.7626 -187.74H238.924C249.549 -187.74 259.27 -179.126 260.633 -168.5L307.648 197.895C309.012 208.521 301.503 217.135 290.877 217.135ZM209.324 65.5841H112.232L97.1595 78.0659L93.0614 45.3707C91.6618 34.2072 99.5774 25.1573 110.741 25.1573H204.256C215.42 25.1573 225.604 34.2072 227.004 45.3707C228.403 56.5342 220.488 65.5841 209.324 65.5841Z" fill="url(#paint27_linear_158_254)"/>
<path d="M290.877 217.135H124.716C114.09 217.135 104.37 208.521 103.007 197.895L55.9909 -168.5C54.6274 -179.126 62.1367 -187.74 72.7626 -187.74H238.924C249.549 -187.74 259.27 -179.126 260.633 -168.5L307.648 197.895C309.012 208.521 301.503 217.135 290.877 217.135ZM169.186 129.25H266.279L284.479 141.732L280.381 109.037C278.982 97.873 268.797 88.8238 257.634 88.8238H164.118C152.955 88.8238 145.039 97.873 146.439 109.037C147.839 120.2 158.022 129.25 169.186 129.25Z" fill="url(#paint28_linear_158_254)"/>
<path d="M85.316 -152.426L191.563 -152.531M290.877 217.135H124.716C114.09 217.135 104.37 208.521 103.007 197.895L55.9909 -168.5C54.6274 -179.126 62.1367 -187.74 72.7626 -187.74H238.924C249.549 -187.74 259.27 -179.126 260.633 -168.5L307.648 197.895C309.012 208.521 301.503 217.135 290.877 217.135Z" stroke="#00BDB7" stroke-width="1.38919" stroke-linecap="round" stroke-linejoin="round"/>
<path d="M87.2477 -140.562L193.494 -140.667M290.877 217.135H124.716C114.09 217.135 104.37 208.521 103.007 197.895L55.9909 -168.5C54.6274 -179.126 62.1367 -187.74 72.7626 -187.74H238.924C249.549 -187.74 259.27 -179.126 260.633 -168.5L307.648 197.895C309.012 208.521 301.503 217.135 290.877 217.135Z" stroke="#00BDB7" stroke-width="1.38919" stroke-linecap="round" stroke-linejoin="round"/>
<path d="M91.3055 -88.6673L197.552 -88.7722M290.877 217.135H124.716C114.09 217.135 104.37 208.521 103.007 197.895L55.9909 -168.5C54.6274 -179.126 62.1367 -187.74 72.7626 -187.74H238.924C249.549 -187.74 259.27 -179.126 260.633 -168.5L307.648 197.895C309.012 208.521 301.503 217.135 290.877 217.135Z" stroke="#00BDB7" stroke-width="1.38919" stroke-linecap="round" stroke-linejoin="round"/>
<path d="M93.2379 -76.8029L199.484 -76.9078M290.877 217.135H124.716C114.09 217.135 104.37 208.521 103.007 197.895L55.9909 -168.5C54.6274 -179.126 62.1367 -187.74 72.7626 -187.74H238.924C249.549 -187.74 259.27 -179.126 260.633 -168.5L307.648 197.895C309.012 208.521 301.503 217.135 290.877 217.135Z" stroke="#00BDB7" stroke-width="1.38919" stroke-linecap="round" stroke-linejoin="round"/>
<path d="M108.595 39.7472L214.841 39.6424M290.877 217.135H124.716C114.09 217.135 104.37 208.521 103.007 197.895L55.9909 -168.5C54.6274 -179.126 62.1367 -187.74 72.7626 -187.74H238.924C249.549 -187.74 259.27 -179.126 260.633 -168.5L307.648 197.895C309.012 208.521 301.503 217.135 290.877 217.135Z" stroke="#00BDB7" stroke-width="1.38919" stroke-linecap="round" stroke-linejoin="round"/>
<path d="M110.526 51.6116L216.773 51.5067M290.877 217.135H124.716C114.09 217.135 104.37 208.521 103.007 197.895L55.9909 -168.5C54.6274 -179.126 62.1367 -187.74 72.7626 -187.74H238.924C249.549 -187.74 259.27 -179.126 260.633 -168.5L307.648 197.895C309.012 208.521 301.503 217.135 290.877 217.135Z" stroke="#00BDB7" stroke-width="1.38919" stroke-linecap="round" stroke-linejoin="round"/>
<path d="M145.329 -25.3627L251.576 -25.4675M290.877 217.135H124.716C114.09 217.135 104.37 208.521 103.007 197.895L55.9909 -168.5C54.6274 -179.126 62.1367 -187.74 72.7626 -187.74H238.924C249.549 -187.74 259.27 -179.126 260.633 -168.5L307.648 197.895C309.012 208.521 301.503 217.135 290.877 217.135Z" stroke="#007AB7" stroke-width="1.38919" stroke-linecap="round" stroke-linejoin="round"/>
<path d="M147.261 -13.4983L253.507 -13.6032M290.877 217.135H124.716C114.09 217.135 104.37 208.521 103.007 197.895L55.9909 -168.5C54.6274 -179.126 62.1367 -187.74 72.7626 -187.74H238.924C249.549 -187.74 259.27 -179.126 260.633 -168.5L307.648 197.895C309.012 208.521 301.503 217.135 290.877 217.135Z" stroke="#007AB7" stroke-width="1.38919" stroke-linecap="round" stroke-linejoin="round"/>
<path d="M161.29 102.211L267.536 102.106M290.877 217.135H124.716C114.09 217.135 104.37 208.521 103.007 197.895L55.9909 -168.5C54.6274 -179.126 62.1367 -187.74 72.7626 -187.74H238.924C249.549 -187.74 259.27 -179.126 260.633 -168.5L307.648 197.895C309.012 208.521 301.503 217.135 290.877 217.135Z" stroke="#007AB7" stroke-width="1.38919" stroke-linecap="round" stroke-linejoin="round"/>
<path d="M163.222 114.075L269.468 113.97M290.877 217.135H124.716C114.09 217.135 104.37 208.521 103.007 197.895L55.9909 -168.5C54.6274 -179.126 62.1367 -187.74 72.7626 -187.74H238.924C249.549 -187.74 259.27 -179.126 260.633 -168.5L307.648 197.895C309.012 208.521 301.503 217.135 290.877 217.135Z" stroke="#007AB7" stroke-width="1.38919" stroke-linecap="round" stroke-linejoin="round"/>
<path d="M231.564 207.226H134.471L119.4 219.708L115.301 187.012C113.901 175.849 121.818 166.799 132.981 166.799H226.497C237.66 166.799 247.844 175.849 249.243 187.012C250.643 198.176 242.727 207.226 231.564 207.226Z" fill="url(#paint29_linear_158_254)"/>
<path d="M130.401 180.993L236.648 180.888" stroke="#00BDB7" stroke-width="1.38919" stroke-linecap="round" stroke-linejoin="round"/>
<path d="M132.333 192.857L238.58 192.752" stroke="#00BDB7" stroke-width="1.38919" stroke-linecap="round" stroke-linejoin="round"/>
<path d="M238.451 271.67H141.358L126.287 284.153L122.189 251.457C120.789 240.294 128.705 231.244 139.868 231.244H233.384C244.547 231.244 254.731 240.294 256.131 251.457C257.53 262.621 249.614 271.67 238.451 271.67Z" fill="url(#paint30_linear_158_254)"/>
<path d="M136.393 244.752L242.639 244.647" stroke="#00BDB7" stroke-width="1.38919" stroke-linecap="round" stroke-linejoin="round"/>
<path d="M138.325 256.616L244.572 256.511" stroke="#00BDB7" stroke-width="1.38919" stroke-linecap="round" stroke-linejoin="round"/>
<path d="M198.31 335.336H295.403L313.604 347.819L309.505 315.123C308.106 303.959 297.922 294.909 286.759 294.909H193.243C182.08 294.909 174.164 303.959 175.564 315.123C176.963 326.286 187.147 335.336 198.31 335.336Z" fill="url(#paint31_linear_158_254)"/>
<path d="M190.414 308.056L296.661 307.951" stroke="#007AB7" stroke-width="1.38919" stroke-linecap="round" stroke-linejoin="round"/>
<path d="M192.346 319.92L298.592 319.815" stroke="#007AB7" stroke-width="1.38919" stroke-linecap="round" stroke-linejoin="round"/>
</g>
<g opacity="0.2">
<path d="M323.875 188.464H195.72C187.024 188.464 180.812 195.513 181.846 204.209L198.918 350.788L223.577 323.952H341.261L323.875 188.464Z" fill="#1E1E1E"/>
</g>
<g opacity="0.5">
<path d="M432.305 164.619H252.198C236.39 164.619 223.575 177.433 223.575 193.242V345.12L255.1 317.999H432.305C448.113 317.999 460.928 305.184 460.928 289.376V193.242C460.928 177.433 448.113 164.619 432.305 164.619Z" fill="url(#paint32_linear_158_254)"/>
</g>
<path d="M432.305 164.619H252.198C236.39 164.619 223.575 177.433 223.575 193.242V345.12L255.1 317.999H432.305C448.113 317.999 460.928 305.184 460.928 289.376V193.242C460.928 177.433 448.113 164.619 432.305 164.619Z" stroke="url(#paint33_linear_158_254)" stroke-width="1.38919" stroke-miterlimit="10"/>
<path d="M419.494 298.431H253.722C249.936 298.431 246.866 295.362 246.866 291.576V187.347C246.866 183.561 249.936 180.492 253.722 180.492H419.494C423.28 180.492 426.349 183.561 426.349 187.347V291.576C426.349 295.362 423.28 298.431 419.494 298.431Z" fill="url(#paint34_linear_158_254)"/>
<path d="M429.214 298.431H263.442C259.656 298.431 256.587 295.362 256.587 291.576V187.347C256.587 183.561 259.656 180.492 263.442 180.492H429.214C433 180.492 436.069 183.561 436.069 187.347V291.576C436.069 295.362 433 298.431 429.214 298.431Z" fill="url(#paint35_linear_158_254)"/>
<path d="M346.328 228.463L261.126 294.893C263.556 297.085 266.763 298.431 270.293 298.431H422.364C425.894 298.431 429.102 297.085 431.532 294.893L346.328 228.463Z" fill="url(#paint36_linear_158_254)"/>
<path d="M346.328 250.46L431.532 184.03C429.102 181.838 425.894 180.492 422.364 180.492H270.293C266.763 180.492 263.556 181.838 261.126 184.03L346.328 250.46Z" fill="url(#paint37_linear_158_254)"/>
<path d="M261.126 184.03L346.328 250.46L431.532 184.03" stroke="#0D0B2D" stroke-width="1.00161" stroke-miterlimit="10"/>
<path d="M456.301 180.492C456.301 199.924 440.548 215.676 421.116 215.676C401.684 215.676 385.931 199.924 385.931 180.492C385.931 161.06 401.684 145.306 421.116 145.306C440.548 145.306 456.301 161.06 456.301 180.492Z" fill="#4335E2"/>
<path d="M460.93 180.492C460.93 199.924 445.177 215.676 425.745 215.676C406.313 215.676 390.56 199.924 390.56 180.492C390.56 161.06 406.313 145.306 425.745 145.306C445.177 145.306 460.93 161.06 460.93 180.492Z" fill="#4335E2"/>
<path d="M433.862 198.007H427.085V169.01L420.716 169.178V163.981L433.862 162.641V198.007Z" fill="#4335E2"/>
<path d="M430.713 198.007H424V169.285L417.691 169.451V164.304L430.713 162.976V198.007Z" fill="white"/>
<defs>
<linearGradient id="paint0_linear_158_254" x1="278.533" y1="63.2081" x2="126.046" y2="494.633" gradientUnits="userSpaceOnUse">
<stop stop-color="#D1DEEC"/>
<stop offset="0.55" stop-color="#69ACCB" stop-opacity="0.5"/>
<stop offset="1" stop-color="#007BAA" stop-opacity="0"/>
</linearGradient>
<linearGradient id="paint1_linear_158_254" x1="321.597" y1="117.386" x2="321.597" y2="235.129" gradientUnits="userSpaceOnUse">
<stop stop-color="#4ADECE"/>
<stop offset="0.5" stop-color="#30BAD2"/>
<stop offset="1" stop-color="#1697D7"/>
</linearGradient>
<linearGradient id="paint2_linear_158_254" x1="233.384" y1="54.1784" x2="197.367" y2="447.7" gradientUnits="userSpaceOnUse">
<stop stop-color="#4ADECE"/>
<stop offset="0.5" stop-color="#30BAD2"/>
<stop offset="1" stop-color="#1697D7"/>
</linearGradient>
<linearGradient id="paint3_linear_158_254" x1="255.611" y1="21.5325" x2="171.643" y2="516.012" gradientUnits="userSpaceOnUse">
<stop stop-color="#D3F7FF"/>
<stop offset="0.54" stop-color="#C2E3EC"/>
<stop offset="1" stop-color="#B0CFD9"/>
</linearGradient>
<linearGradient id="paint4_linear_158_254" x1="247.97" y1="65.2919" x2="105.668" y2="65.2919" gradientUnits="userSpaceOnUse">
<stop stop-color="#007D73"/>
<stop offset="0.66" stop-color="#0B5F7C"/>
<stop offset="1" stop-color="#164186"/>
</linearGradient>
<linearGradient id="paint5_linear_158_254" x1="233.384" y1="54.1784" x2="197.367" y2="447.7" gradientUnits="userSpaceOnUse">
<stop stop-color="#4ADECE"/>
<stop offset="0.5" stop-color="#30BAD2"/>
<stop offset="1" stop-color="#1697D7"/>
</linearGradient>
<linearGradient id="paint6_linear_158_254" x1="255.611" y1="21.5325" x2="171.643" y2="516.012" gradientUnits="userSpaceOnUse">
<stop stop-color="#D3F7FF"/>
<stop offset="0.54" stop-color="#C2E3EC"/>
<stop offset="1" stop-color="#B0CFD9"/>
</linearGradient>
<linearGradient id="paint7_linear_158_254" x1="238.246" y1="521.641" x2="309.152" y2="396.621" gradientUnits="userSpaceOnUse">
<stop stop-color="#4ADECE"/>
<stop offset="0.5" stop-color="#30BAD2"/>
<stop offset="1" stop-color="#1697D7"/>
</linearGradient>
<linearGradient id="paint8_linear_158_254" x1="864.98" y1="439.049" x2="688.428" y2="439.049" gradientUnits="userSpaceOnUse">
<stop stop-color="#4ADECE"/>
<stop offset="0.5" stop-color="#30BAD2"/>
<stop offset="1" stop-color="#1697D7"/>
</linearGradient>
<linearGradient id="paint9_linear_158_254" x1="238.246" y1="521.641" x2="309.152" y2="396.621" gradientUnits="userSpaceOnUse">
<stop stop-color="#4ADECE"/>
<stop offset="0.5" stop-color="#30BAD2"/>
<stop offset="1" stop-color="#1697D7"/>
</linearGradient>
<linearGradient id="paint10_linear_158_254" x1="186.846" y1="193.097" x2="186.846" y2="-8.50876" gradientUnits="userSpaceOnUse">
<stop stop-color="#007D73"/>
<stop offset="0.66" stop-color="#0B5F7C"/>
<stop offset="1" stop-color="#164186"/>
</linearGradient>
<linearGradient id="paint11_linear_158_254" x1="247.97" y1="65.2919" x2="105.668" y2="65.2919" gradientUnits="userSpaceOnUse">
<stop stop-color="#007D73"/>
<stop offset="0.66" stop-color="#0B5F7C"/>
<stop offset="1" stop-color="#164186"/>
</linearGradient>
<linearGradient id="paint12_linear_158_254" x1="302.148" y1="46.5379" x2="302.148" y2="443.597" gradientUnits="userSpaceOnUse">
<stop stop-color="#007D73"/>
<stop offset="0.66" stop-color="#0B5F7C"/>
<stop offset="1" stop-color="#164186"/>
</linearGradient>
<linearGradient id="paint13_linear_158_254" x1="186.846" y1="50.0108" x2="150.829" y2="443.532" gradientUnits="userSpaceOnUse">
<stop stop-color="#007D73"/>
<stop offset="0.66" stop-color="#0B5F7C"/>
<stop offset="1" stop-color="#164186"/>
</linearGradient>
<linearGradient id="paint14_linear_158_254" x1="247.971" y1="60.4298" x2="105.67" y2="60.4298" gradientUnits="userSpaceOnUse">
<stop stop-color="#007D73"/>
<stop offset="0.66" stop-color="#0B5F7C"/>
<stop offset="1" stop-color="#164186"/>
</linearGradient>
<linearGradient id="paint15_linear_158_254" x1="247.971" y1="60.4297" x2="105.67" y2="60.4297" gradientUnits="userSpaceOnUse">
<stop stop-color="#007D73"/>
<stop offset="0.66" stop-color="#0B5F7C"/>
<stop offset="1" stop-color="#164186"/>
</linearGradient>
<linearGradient id="paint16_linear_158_254" x1="302.148" y1="46.5379" x2="302.148" y2="443.597" gradientUnits="userSpaceOnUse">
<stop stop-color="#007D73"/>
<stop offset="0.66" stop-color="#0B5F7C"/>
<stop offset="1" stop-color="#164186"/>
</linearGradient>
<linearGradient id="paint17_linear_158_254" x1="186.846" y1="50.0108" x2="150.829" y2="443.532" gradientUnits="userSpaceOnUse">
<stop stop-color="#007D73"/>
<stop offset="0.66" stop-color="#0B5F7C"/>
<stop offset="1" stop-color="#164186"/>
</linearGradient>
<linearGradient id="paint18_linear_158_254" x1="247.971" y1="60.4298" x2="105.67" y2="60.4298" gradientUnits="userSpaceOnUse">
<stop stop-color="#4ADECE"/>
<stop offset="0.5" stop-color="#30BAD2"/>
<stop offset="1" stop-color="#1697D7"/>
</linearGradient>
<linearGradient id="paint19_linear_158_254" x1="247.971" y1="60.4297" x2="105.67" y2="60.4297" gradientUnits="userSpaceOnUse">
<stop stop-color="#007D73"/>
<stop offset="0.66" stop-color="#0B5F7C"/>
<stop offset="1" stop-color="#164186"/>
</linearGradient>
<linearGradient id="paint20_linear_158_254" x1="81.9626" y1="71.5432" x2="81.9626" y2="412.29" gradientUnits="userSpaceOnUse">
<stop stop-color="#007D73"/>
<stop offset="0.66" stop-color="#0B5F7C"/>
<stop offset="1" stop-color="#164186"/>
</linearGradient>
<linearGradient id="paint21_linear_158_254" x1="-102.105" y1="243.803" x2="110.376" y2="243.803" gradientUnits="userSpaceOnUse">
<stop stop-color="#007D73"/>
<stop offset="0.66" stop-color="#0B5F7C"/>
<stop offset="1" stop-color="#164186"/>
</linearGradient>
<linearGradient id="paint22_linear_158_254" x1="73.6269" y1="71.5432" x2="73.6269" y2="412.29" gradientUnits="userSpaceOnUse">
<stop stop-color="#4ADECE"/>
<stop offset="0.5" stop-color="#30BAD2"/>
<stop offset="1" stop-color="#1697D7"/>
</linearGradient>
<linearGradient id="paint23_linear_158_254" x1="-102.105" y1="181.289" x2="110.376" y2="181.289" gradientUnits="userSpaceOnUse">
<stop stop-color="#007D73"/>
<stop offset="0.66" stop-color="#0B5F7C"/>
<stop offset="1" stop-color="#164186"/>
</linearGradient>
<linearGradient id="paint24_linear_158_254" x1="117.347" y1="-72.9799" x2="525.487" y2="-72.9799" gradientUnits="userSpaceOnUse">
<stop stop-color="#4ADECE"/>
<stop offset="0.5" stop-color="#30BAD2"/>
<stop offset="1" stop-color="#1697D7"/>
</linearGradient>
<linearGradient id="paint25_linear_158_254" x1="118.736" y1="-137.92" x2="526.876" y2="-137.92" gradientUnits="userSpaceOnUse">
<stop stop-color="#4ADECE"/>
<stop offset="0.5" stop-color="#30BAD2"/>
<stop offset="1" stop-color="#1697D7"/>
</linearGradient>
<linearGradient id="paint26_linear_158_254" x1="589.889" y1="36.5167" x2="850.304" y2="36.5167" gradientUnits="userSpaceOnUse">
<stop stop-color="#4ADECE"/>
<stop offset="0.5" stop-color="#30BAD2"/>
<stop offset="1" stop-color="#1697D7"/>
</linearGradient>
<linearGradient id="paint27_linear_158_254" x1="117.347" y1="56.8259" x2="525.487" y2="56.8259" gradientUnits="userSpaceOnUse">
<stop stop-color="#4ADECE"/>
<stop offset="0.5" stop-color="#30BAD2"/>
<stop offset="1" stop-color="#1697D7"/>
</linearGradient>
<linearGradient id="paint28_linear_158_254" x1="621.81" y1="165.629" x2="882.226" y2="165.629" gradientUnits="userSpaceOnUse">
<stop stop-color="#4ADECE"/>
<stop offset="0.5" stop-color="#30BAD2"/>
<stop offset="1" stop-color="#1697D7"/>
</linearGradient>
<linearGradient id="paint29_linear_158_254" x1="163.821" y1="195.499" x2="571.961" y2="195.499" gradientUnits="userSpaceOnUse">
<stop stop-color="#4ADECE"/>
<stop offset="0.5" stop-color="#30BAD2"/>
<stop offset="1" stop-color="#1697D7"/>
</linearGradient>
<linearGradient id="paint30_linear_158_254" x1="162.435" y1="260.439" x2="570.575" y2="260.439" gradientUnits="userSpaceOnUse">
<stop stop-color="#4ADECE"/>
<stop offset="0.5" stop-color="#30BAD2"/>
<stop offset="1" stop-color="#1697D7"/>
</linearGradient>
<linearGradient id="paint31_linear_158_254" x1="634.974" y1="369.935" x2="895.39" y2="369.935" gradientUnits="userSpaceOnUse">
<stop stop-color="#4ADECE"/>
<stop offset="0.5" stop-color="#30BAD2"/>
<stop offset="1" stop-color="#1697D7"/>
</linearGradient>
<linearGradient id="paint32_linear_158_254" x1="222.965" y1="254.222" x2="460.317" y2="254.222" gradientUnits="userSpaceOnUse">
<stop stop-color="#F6DE55"/>
<stop offset="0.58" stop-color="#F6C654"/>
<stop offset="1" stop-color="#F5AE54"/>
</linearGradient>
<linearGradient id="paint33_linear_158_254" x1="241.024" y1="162.535" x2="420.605" y2="342.116" gradientUnits="userSpaceOnUse">
<stop stop-color="#1697D7"/>
<stop offset="0.5" stop-color="#30BAD2"/>
<stop offset="1" stop-color="#4ADECE"/>
</linearGradient>
<linearGradient id="paint34_linear_158_254" x1="346.603" y1="195.181" x2="316.708" y2="324.728" gradientUnits="userSpaceOnUse">
<stop stop-color="#F88C57"/>
<stop offset="0.52" stop-color="#E36E3C"/>
<stop offset="1" stop-color="#CE5021"/>
</linearGradient>
<linearGradient id="paint35_linear_158_254" x1="345.908" y1="339.657" x2="346.329" y2="208.07" gradientUnits="userSpaceOnUse">
<stop stop-color="#F6DE55"/>
<stop offset="0.58" stop-color="#F6C654"/>
<stop offset="1" stop-color="#F5AE54"/>
</linearGradient>
<linearGradient id="paint36_linear_158_254" x1="321.597" y1="420.924" x2="352.406" y2="261.122" gradientUnits="userSpaceOnUse">
<stop stop-color="#F6DE55"/>
<stop offset="0.58" stop-color="#F6C654"/>
<stop offset="1" stop-color="#F5AE54"/>
</linearGradient>
<linearGradient id="paint37_linear_158_254" x1="346.603" y1="166.703" x2="342.349" y2="289.296" gradientUnits="userSpaceOnUse">
<stop stop-color="#F6DE55"/>
<stop offset="0.58" stop-color="#F6C654"/>
<stop offset="1" stop-color="#F5AE54"/>
</linearGradient>
</defs>
</svg>
